# This file uses centimeters as units for non-parametric coordinates.

mtllib BouncerRed.mtl
g default
v 0.318547 -0.111256 -0.000000
v 0.241680 -0.111256 -0.211190
v 0.047049 -0.111256 -0.323559
v -0.174277 -0.111256 -0.284535
v -0.318738 -0.111256 -0.112374
v -0.318738 -0.111256 0.112369
v -0.174277 -0.111256 0.284530
v 0.047049 -0.111256 0.323555
v 0.241680 -0.111256 0.211185
v 0.318547 0.111256 -0.000000
v 0.241680 0.111256 -0.211190
v 0.047049 0.111256 -0.323559
v -0.174277 0.111256 -0.284535
v -0.318738 0.111256 -0.112374
v -0.318738 0.111256 0.112369
v -0.174277 0.111256 0.284530
v 0.047049 0.111256 0.323555
v 0.241680 0.111256 0.211185
v 0.321734 0.111256 -0.000000
v 0.244122 0.111256 -0.213238
v 0.047603 0.111256 -0.326699
v -0.175871 0.111256 -0.287293
v -0.321733 0.111256 -0.113461
v -0.321733 0.111256 0.113460
v -0.175871 0.111256 0.287292
v 0.047603 0.111256 0.326694
v 0.244122 0.111256 0.213234
v 0.321734 -0.111256 -0.000000
v 0.244122 -0.111256 -0.213238
v 0.047603 -0.111256 -0.326699
v -0.175871 -0.111256 -0.287293
v -0.321733 -0.111256 -0.113461
v -0.321733 -0.111256 0.113460
v -0.175871 -0.111256 0.287292
v 0.047603 -0.111256 0.326694
v 0.244122 -0.111256 0.213234
v 0.204630 -0.165610 -0.180100
v 0.038650 -0.165610 -0.275929
v -0.150097 -0.165610 -0.242649
v -0.273291 -0.165610 -0.095829
v -0.273291 -0.165610 0.095829
v -0.150097 -0.165610 0.242645
v 0.038650 -0.165610 0.275928
v 0.204630 -0.165610 0.180099
v 0.270181 -0.165610 -0.000000
v 0.204630 0.165610 -0.180100
v 0.038650 0.165610 -0.275929
v -0.150097 0.165610 -0.242649
v -0.273291 0.165610 -0.095829
v -0.273291 0.165610 0.095829
v -0.150097 0.165610 0.242645
v 0.038650 0.165610 0.275928
v 0.204630 0.165610 0.180099
v 0.270181 0.165610 -0.000000
v -0.010004 -0.165610 -0.000000
v -0.010004 0.165609 -0.000000
vt 0.205230 0.858839
vt 0.219990 0.858839
vt 0.234750 0.858839
vt 0.249510 0.858839
vt 0.264269 0.858839
vt 0.279029 0.858839
vt 0.293789 0.858839
vt 0.308548 0.858839
vt 0.323308 0.858839
vt 0.338068 0.858839
vt 0.205230 0.825630
vt 0.219990 0.825630
vt 0.234750 0.825630
vt 0.249510 0.825630
vt 0.264269 0.825630
vt 0.279029 0.825630
vt 0.293789 0.825630
vt 0.308548 0.825630
vt 0.323308 0.825630
vt 0.338068 0.825630
vt 0.205230 0.792421
vt 0.219990 0.792421
vt 0.234750 0.792421
vt 0.249510 0.792421
vt 0.264269 0.792421
vt 0.279029 0.792421
vt 0.293789 0.792421
vt 0.308548 0.792421
vt 0.323308 0.792421
vt 0.338068 0.792421
vt 0.205230 0.759211
vt 0.219990 0.759211
vt 0.234750 0.759211
vt 0.249510 0.759211
vt 0.264269 0.759211
vt 0.279029 0.759211
vt 0.293789 0.759211
vt 0.308548 0.759211
vt 0.323308 0.759211
vt 0.338068 0.759211
vt 0.205230 0.726002
vt 0.219990 0.726002
vt 0.234750 0.726002
vt 0.249510 0.726002
vt 0.264269 0.726002
vt 0.279029 0.726002
vt 0.293789 0.726002
vt 0.308548 0.726002
vt 0.323308 0.726002
vt 0.338068 0.726002
vt 0.375000 0.312500
vt 0.402778 0.312500
vt 0.402778 0.688440
vt 0.375000 0.688440
vt 0.430556 0.312500
vt 0.430556 0.688440
vt 0.458333 0.312500
vt 0.458333 0.688440
vt 0.486111 0.312500
vt 0.486111 0.688440
vt 0.513889 0.312500
vt 0.513889 0.688440
vt 0.541667 0.312500
vt 0.541667 0.688440
vt 0.569445 0.312500
vt 0.569445 0.688440
vt 0.597222 0.312500
vt 0.597222 0.688440
vt 0.625000 0.312500
vt 0.625000 0.688440
vt 0.527133 0.002374
vt 0.619694 0.055814
vt 0.500000 0.150000
vt 0.421875 0.020934
vt 0.353173 0.102809
vt 0.353173 0.209691
vt 0.421875 0.291566
vt 0.527133 0.310126
vt 0.619694 0.256686
vt 0.656250 0.156250
vt 0.619694 0.944186
vt 0.527133 0.997626
vt 0.500000 0.837500
vt 0.421875 0.979066
vt 0.353173 0.897191
vt 0.353173 0.790309
vt 0.421875 0.708434
vt 0.527133 0.689874
vt 0.619694 0.743314
vt 0.656250 0.843750
vn -0.939694 0.000000 0.342017
vn -0.939694 0.000000 0.342017
vn -0.939694 0.000000 0.342017
vn -0.939694 0.000000 0.342017
vn -0.499994 0.000000 0.866029
vn -0.499994 0.000000 0.866029
vn -0.499994 0.000000 0.866029
vn -0.499994 0.000000 0.866029
vn 0.173639 0.000000 0.984809
vn 0.173639 0.000000 0.984809
vn 0.173639 0.000000 0.984809
vn 0.173639 0.000000 0.984809
vn 0.766045 0.000000 0.642786
vn 0.766045 0.000000 0.642786
vn 0.766045 0.000000 0.642786
vn 0.766045 0.000000 0.642786
vn 1.000000 0.000000 0.000000
vn 1.000000 0.000000 0.000000
vn 1.000000 0.000000 0.000000
vn 1.000000 0.000000 0.000000
vn 0.766042 0.000000 -0.642791
vn 0.766042 0.000000 -0.642791
vn 0.766042 0.000000 -0.642791
vn 0.766042 0.000000 -0.642791
vn 0.173648 0.000000 -0.984808
vn 0.173648 0.000000 -0.984808
vn 0.173648 0.000000 -0.984808
vn 0.173648 0.000000 -0.984808
vn -0.499994 0.000000 -0.866029
vn -0.499994 0.000000 -0.866029
vn -0.499994 0.000000 -0.866029
vn -0.499994 0.000000 -0.866029
vn -0.939691 0.000000 -0.342024
vn -0.939691 0.000000 -0.342024
vn -0.939691 0.000000 -0.342024
vn -0.939691 0.000000 -0.342024
vn 0.000000 1.000000 0.000000
vn 0.000000 1.000000 -0.000001
vn 0.000000 1.000000 -0.000001
vn 0.000000 1.000000 0.000000
vn 0.000000 1.000000 0.000002
vn 0.000000 1.000000 0.000002
vn 0.000000 1.000000 0.000001
vn 0.000000 1.000000 0.000001
vn 0.000000 1.000000 -0.000000
vn 0.000000 1.000000 -0.000000
vn 0.000000 1.000000 0.000001
vn 0.000000 1.000000 0.000001
vn 0.000000 1.000000 0.000002
vn 0.000000 1.000000 0.000002
vn 0.000000 1.000000 0.000002
vn 0.000000 1.000000 0.000002
vn 0.000000 1.000000 0.000000
vn 0.000000 1.000000 0.000000
vn 0.939694 0.000000 -0.342018
vn 0.939694 0.000000 -0.342018
vn 0.939694 0.000000 -0.342018
vn 0.939694 0.000000 -0.342018
vn 0.499998 0.000000 -0.866027
vn 0.499998 0.000000 -0.866027
vn 0.499998 0.000000 -0.866027
vn 0.499998 0.000000 -0.866027
vn -0.173651 0.000000 -0.984807
vn -0.173651 0.000000 -0.984807
vn -0.173651 0.000000 -0.984807
vn -0.173651 0.000000 -0.984807
vn -0.766043 0.000000 -0.642789
vn -0.766043 0.000000 -0.642789
vn -0.766043 0.000000 -0.642789
vn -0.766043 0.000000 -0.642789
vn -1.000000 0.000000 0.000000
vn -1.000000 0.000000 0.000000
vn -1.000000 0.000000 0.000000
vn -1.000000 0.000000 0.000000
vn -0.766043 0.000000 0.642789
vn -0.766043 0.000000 0.642789
vn -0.766043 0.000000 0.642789
vn -0.766043 0.000000 0.642789
vn -0.173641 0.000000 0.984809
vn -0.173641 0.000000 0.984809
vn -0.173641 0.000000 0.984809
vn -0.173641 0.000000 0.984809
vn 0.500005 0.000000 0.866022
vn 0.500005 0.000000 0.866022
vn 0.500005 0.000000 0.866022
vn 0.500005 0.000000 0.866022
vn 0.939690 0.000000 0.342027
vn 0.939690 0.000000 0.342027
vn 0.939690 0.000000 0.342027
vn 0.939690 0.000000 0.342027
vn 0.000000 -1.000000 -0.000000
vn 0.000000 -1.000000 -0.000000
vn 0.000000 -1.000000 -0.000000
vn 0.000000 -1.000000 -0.000000
vn 0.000000 -1.000000 0.000000
vn 0.000000 -1.000000 0.000000
vn 0.000000 -1.000000 0.000000
vn 0.000000 -1.000000 0.000000
vn 0.000000 -1.000000 0.000000
vn 0.000000 -1.000000 0.000000
vn 0.000000 -1.000000 -0.000000
vn 0.000000 -1.000000 -0.000000
vn 0.000000 -1.000000 -0.000000
vn 0.000000 -1.000000 -0.000000
vn 0.000000 -1.000000 -0.000000
vn 0.000000 -1.000000 -0.000000
vn 0.000000 -1.000000 0.000000
vn 0.000000 -1.000000 0.000000
vn 0.499998 0.000000 -0.866026
vn 0.499998 0.000000 -0.866026
vn 0.499998 0.000000 -0.866026
vn 0.499998 0.000000 -0.866026
vn -0.173637 0.000000 -0.984810
vn -0.173637 0.000000 -0.984810
vn -0.173637 0.000000 -0.984810
vn -0.173637 0.000000 -0.984810
vn -0.766051 0.000000 -0.642780
vn -0.766051 0.000000 -0.642780
vn -0.766051 0.000000 -0.642780
vn -0.766051 0.000000 -0.642780
vn -1.000000 0.000000 0.000000
vn -1.000000 0.000000 0.000000
vn -1.000000 0.000000 0.000000
vn -1.000000 0.000000 0.000000
vn -0.766038 0.000000 0.642795
vn -0.766038 0.000000 0.642795
vn -0.766038 0.000000 0.642795
vn -0.766038 0.000000 0.642795
vn -0.173666 0.000000 0.984805
vn -0.173666 0.000000 0.984805
vn -0.173666 0.000000 0.984805
vn -0.173666 0.000000 0.984805
vn 0.500010 0.000000 0.866020
vn 0.500010 0.000000 0.866020
vn 0.500010 0.000000 0.866020
vn 0.500010 0.000000 0.866020
vn 0.939693 0.000000 0.342020
vn 0.939693 0.000000 0.342020
vn 0.939693 0.000000 0.342020
vn 0.939693 0.000000 0.342020
vn 0.939693 0.000000 -0.342020
vn 0.939693 0.000000 -0.342020
vn 0.939693 0.000000 -0.342020
vn 0.939693 0.000000 -0.342020
vn 0.000000 -1.000000 0.000000
vn 0.000000 -1.000000 0.000000
vn 0.000000 -1.000000 0.000000
vn 0.000000 -1.000000 0.000000
vn 0.000000 -1.000000 0.000000
vn 0.000000 -1.000000 0.000000
vn 0.000000 -1.000000 0.000000
vn 0.000000 -1.000000 0.000000
vn 0.000000 -1.000000 0.000000
vn 0.000000 -1.000000 0.000000
vn -0.000000 1.000000 0.000000
vn -0.000000 1.000000 0.000000
vn -0.000000 1.000000 -0.000000
vn 0.000000 1.000000 0.000000
vn 0.000000 1.000000 0.000000
vn 0.000000 1.000000 -0.000000
vn 0.000000 1.000000 -0.000000
vn -0.000000 1.000000 -0.000000
vn -0.000000 1.000000 -0.000000
vn -0.000000 1.000000 0.000000
s off
g Level_Models:pPipe5
usemtl Level_Models:lambert8SG
f 2/2/1 1/1/2 10/11/3 11/12/4
f 3/3/5 2/2/6 11/12/7 12/13/8
f 4/4/9 3/3/10 12/13/11 13/14/12
f 5/5/13 4/4/14 13/14/15 14/15/16
f 6/6/17 5/5/18 14/15/19 15/16/20
f 7/7/21 6/6/22 15/16/23 16/17/24
f 8/8/25 7/7/26 16/17/27 17/18/28
f 9/9/29 8/8/30 17/18/31 18/19/32
f 1/10/33 9/9/34 18/19/35 10/20/36
s 1
f 11/12/37 10/11/38 19/21/39 20/22/40
f 12/13/41 11/12/37 20/22/40 21/23/42
f 13/14/43 12/13/41 21/23/42 22/24/44
f 14/15/45 13/14/43 22/24/44 23/25/46
f 15/16/47 14/15/45 23/25/46 24/26/48
f 16/17/49 15/16/47 24/26/48 25/27/50
f 17/18/51 16/17/49 25/27/50 26/28/52
f 18/19/53 17/18/51 26/28/52 27/29/54
f 10/20/38 18/19/53 27/29/54 19/30/39
s off
f 20/22/55 19/21/56 28/31/57 29/32/58
f 21/23/59 20/22/60 29/32/61 30/33/62
f 22/24/63 21/23/64 30/33/65 31/34/66
f 23/25/67 22/24/68 31/34/69 32/35/70
f 24/26/71 23/25/72 32/35/73 33/36/74
f 25/27/75 24/26/76 33/36/77 34/37/78
f 26/28/79 25/27/80 34/37/81 35/38/82
f 27/29/83 26/28/84 35/38/85 36/39/86
f 19/30/87 27/29/88 36/39/89 28/40/90
s 2
f 29/32/91 28/31/92 1/41/93 2/42/94
f 30/33/95 29/32/91 2/42/94 3/43/96
f 31/34/97 30/33/95 3/43/96 4/44/98
f 32/35/99 31/34/97 4/44/98 5/45/100
f 33/36/101 32/35/99 5/45/100 6/46/102
f 34/37/103 33/36/101 6/46/102 7/47/104
f 35/38/105 34/37/103 7/47/104 8/48/106
f 36/39/107 35/38/105 8/48/106 9/49/108
f 28/40/92 36/39/107 9/49/108 1/50/93
s off
usemtl Level_Models:lambert4SG
f 37/51/109 38/52/110 47/53/111 46/54/112
f 38/52/113 39/55/114 48/56/115 47/53/116
f 39/55/117 40/57/118 49/58/119 48/56/120
f 40/57/121 41/59/122 50/60/123 49/58/124
f 41/59/125 42/61/126 51/62/127 50/60/128
f 42/61/129 43/63/130 52/64/131 51/62/132
f 43/63/133 44/65/134 53/66/135 52/64/136
f 44/65/137 45/67/138 54/68/139 53/66/140
f 45/67/141 37/69/142 46/70/143 54/68/144
s 3
f 38/71/145 37/72/146 55/73/147
f 39/74/148 38/71/145 55/73/147
f 40/75/149 39/74/148 55/73/147
f 41/76/150 40/75/149 55/73/147
f 42/77/151 41/76/150 55/73/147
f 43/78/152 42/77/151 55/73/147
f 44/79/153 43/78/152 55/73/147
f 45/80/154 44/79/153 55/73/147
f 37/72/146 45/80/154 55/73/147
s 4
f 46/81/155 47/82/156 56/83/157
f 47/82/156 48/84/158 56/83/157
f 48/84/158 49/85/159 56/83/157
f 49/85/159 50/86/160 56/83/157
f 50/86/160 51/87/161 56/83/157
f 51/87/161 52/88/162 56/83/157
f 52/88/162 53/89/163 56/83/157
f 53/89/163 54/90/164 56/83/157
f 54/90/164 46/81/155 56/83/157
